<?xml version="1.0" encoding="utf-8"?>
<!-- Generator: Adobe Illustrator 22.1.0, SVG Export Plug-In . SVG Version: 6.00 Build 0)  -->
<svg xmlns="http://www.w3.org/2000/svg" xmlns:xlink="http://www.w3.org/1999/xlink" id="Layer_1" style="enable-background:new 0 0 612 792;" version="1.1" viewBox="0 0 612 792" x="0px" y="0px" xml:space="preserve">
<style type="text/css">
	.st0{fill:#EC008C;}
	.st1{fill:#00AEEF;}
	.st2{fill:#FFF200;}
	.st3{fill:#FFFFFF;stroke:#000000;stroke-miterlimit:10;}
</style>
<g>
	<g>
		<path d="M300.2,275.7V155.5h5.4v48.1c7-10.3,18.4-17.1,31.3-17.1c23.4,0,38.9,18.4,38.9,45.8c0,27.6-15.5,45.6-38.9,45.6    c-13.7,0-25.4-7.7-31.3-16.8v14.6H300.2z M337,273c21.3,0,33-17.8,33-40.7s-11.7-40.9-33-40.9c-13.5,0-25.9,8.5-31.3,17.7v46.7    C311.1,264.9,323.5,273,337,273z"/>
	</g>
	<g>
		<path d="M361.9,428.8l-38.2-43.8l-18,16.6v27.2h-5.4V308.7h5.4v86.1l56.7-53h7.7l-42.3,39.3l41.8,47.7H361.9z"/>
	</g>
	<rect height="4.4" width="81.2" x="292.9" y="290.6"/>
</g>
<circle class="st0" cx="246.3" cy="256.3" r="28.8"/>
<circle class="st1" cx="246.3" cy="184.4" r="28.8"/>
<circle class="st2" cx="246.3" cy="328.3" r="28.8"/>
<circle cx="246.3" cy="400.2" r="28.8"/>
<rect class="st3" height="216" width="216" x="-505.5" y="33"/>
</svg>
