<?xml version="1.0" encoding="utf-8"?>
<!-- Generator: Adobe Illustrator 22.1.0, SVG Export Plug-In . SVG Version: 6.00 Build 0)  -->
<svg version="1.1" id="Layer_1" xmlns:svg="http://www.w3.org/2000/svg"
	 xmlns="http://www.w3.org/2000/svg" xmlns:xlink="http://www.w3.org/1999/xlink" x="0px" y="0px" viewBox="0 0 220 140"
	 style="enable-background:new 0 0 220 140;" xml:space="preserve">
<title>The Standard Ebooks logo</title>
<desc>
	The logo portrays an open book with the letter &quot;S&quot; on the left page and the letter &quot;E&quot; on the right page. A power cord is attached to the bottom of the book and curled beneath it. The book is surrounded by laurels.
	</desc>
<g>
	<path d="M98.6,75c0,0,3.7-1.2,6.7-0.8c4.7,0.6,5.1,3.5,5.1,3.5s-1.9,1.2-5.9,0.7C99.7,77.8,98.6,75,98.6,75L98.6,75z"/>
	<path d="M104.9,70.6c0,0,3.1-1.5,6.1-1.5c5.2,0,5.5,2.8,5.5,2.8s-1.9,1.3-6,1.3C105.8,73.2,104.9,70.6,104.9,70.6L104.9,70.6z"/>
	<path d="M109.6,66.1c0,0,3-2.6,5.9-3.3c5-1.3,6.7,1.7,6.7,1.7s-1.9,2.2-5.9,3.2C111.7,68.7,109.6,66.1,109.6,66.1L109.6,66.1z"/>
	<path d="M114.9,59c0,0,2.6-2.7,6.1-3.8c4.6-1.4,6.7,1.4,6.8,1.4c0,0-1.9,2.4-5.8,3.4C116.8,61.4,114.9,59,114.9,59L114.9,59z"/>
	<path d="M117.5,53.4c0,0,2.4-3.6,5.9-5.3c3.5-1.7,6-0.2,6-0.2c0,0-1.8,3.2-5,4.8C120,54.8,117.5,53.4,117.5,53.4L117.5,53.4z"/>
	<path d="M118.2,48.5c1.3-1.2,1.4-4.4,3.2-7.1c2.5-3.7,6.7-3.4,6.8-3.4c0,0-0.4,4.6-3.6,7.3C121.2,48.3,118.2,48.5,118.2,48.5
		L118.2,48.5z"/>
	<path d="M118.6,40.7c0,0-0.1-4,0.9-7c1.5-4.2,5.5-5,5.5-5c0,0,0.6,4.5-1.7,8C120.9,40.5,118.6,40.7,118.6,40.7L118.6,40.7z"/>
	<path d="M116.9,33.3c0,0-0.8-3.3-0.4-6.5c0.6-4.8,4.3-5.8,4.4-5.8c0,0,1.3,4.4-0.5,8.2C118.4,33.2,116.9,33.3,116.9,33.3
		L116.9,33.3z"/>
	<path d="M113.6,25.3c0,0-1.3-3-1.1-6.2c0.2-4.4,3.2-6.3,3.3-6.3c0,0,2.9,2.6,1.2,8.2C116,24.4,113.6,25.3,113.6,25.3L113.6,25.3z"
		/>
	<path d="M109.4,18.7c0,0-1.9-3-2.5-6.1c-0.5-3,0.7-6.2,1-6.5c0,0,3.1,1.4,3,6.7C110.9,16.3,109.4,18.7,109.4,18.7L109.4,18.7z"/>
	<path d="M104.3,12.3c0,0-2.3-2.4-2.9-5.8c-0.5-2.8,0-5.8,0.5-6.5c0,0,3,1.9,3.2,6.6C105.3,10.1,104.5,11.8,104.3,12.3L104.3,12.3z"
		/>
	<path d="M105.4,13.7c0,0-2.1-2.5-5.7-3.1c-2.8-0.5-4.9,0-6.3,0.8c0,0,2.1,2.7,6.2,3.1C103.1,14.8,104.9,13.9,105.4,13.7L105.4,13.7
		z"/>
	<path d="M109.7,19.4c0,0-2-2.4-5.6-3c-2.8-0.5-4.1,0-5.5,0.8c0,0,1.7,2.6,5.7,3C107.9,20.5,109.2,19.6,109.7,19.4L109.7,19.4z"/>
	<path d="M113.9,26.7c0,0-1.9-2.9-5.2-4.3c-3.5-1.5-5.2-0.8-6.7-0.2c0.5,0.7,2.4,3.7,5.6,4.6C111,27.8,113.4,26.9,113.9,26.7z"/>
	<path d="M116.4,33.3c0,0-1.7-3-4.9-4.7c-3.3-1.7-5.2-1.1-6.7-0.7c0.4,0.7,2.1,3.8,5.2,4.9C113.4,34.1,115.9,33.4,116.4,33.3
		L116.4,33.3z"/>
	<path d="M117.7,41.1c-1.4-1.8-2.2-3.8-4.4-5.8c-2.7-2.4-5-1.6-6.6-1.5c0.8,1.5,1.9,3.8,4.4,5.5C114,41.4,117.2,41.1,117.7,41.1
		L117.7,41.1z"/>
	<path d="M117.6,48.3c-1.2-2-1.8-3.5-3.8-5.7c-2.4-2.7-4.7-2.2-6.3-2.2c0.6,1.5,1.6,3.8,3.8,5.8C114,48.5,117,48.2,117.6,48.3
		L117.6,48.3z"/>
	<path d="M116,54c-1.8-2.8-1.6-3.5-3.4-5.8c-1.9-2.5-4.4-2.4-5.9-2.6c0.5,1.6,1.2,3.7,3.3,5.9C112.1,53.7,114.4,53.4,116,54L116,54z
		"/>
	<path d="M113,59.6c-1.2-2.5-1-4.1-2-5.8c-1.7-2.9-3.4-3-5-3.2c1.3,3.6,1,3.6,2.4,5.8C109.7,58.5,111.5,58.8,113,59.6L113,59.6z"/>
	<path d="M109.4,64.3c-0.7-2.7,0-3.5-0.7-5.4c-1.1-3.2-2.8-3.6-4.3-4.1c0.2,2.1-0.1,3.5,1.1,5.8C106.3,62.2,108.1,63.3,109.4,64.3z"
		/>
	<path d="M102.1,59c0,0-1.3,2.5-0.9,5.5c0.6,4.2,2.9,4.8,2.9,4.8s1.3-1.9,1.1-5.7C105.1,59.5,102.1,59,102.1,59L102.1,59z"/>
	<path d="M97.3,63.3c0,0-1.3,2.6-1,5.5c0.4,3.8,2.5,4.8,2.5,4.8s1.3-2.1,1.4-5.3C100.2,63.4,97.3,63.3,97.3,63.3L97.3,63.3z"/>
	<path d="M96.3,4.9c1.8,1.2,3.8,2.7,5.4,4.4c2.9,3,5.7,6.3,8.1,9.7c1.6,2.3,3.8,5.7,5,8.3c1.6,3.4,2.5,5.7,3.3,9.4
		c1.2,5.2,1,10.6-0.2,15.6c-1.8,7.4-7.5,13.7-13.3,18.7c-4.5,3.9-10.5,6.5-15.9,8.4L88.2,78c5.3-1.9,10.8-4.4,15.2-8.2
		c5.5-4.9,10.7-10.8,12.9-17.9c1.3-4.3,1.7-9,1-13.6c-0.6-4-2.2-8-3.7-11.7c-1.2-3-2.7-5.3-4.5-7.8c-2.2-3.1-4.7-6.2-7.3-9
		c-1.7-1.8-4-3.4-5.8-4.7L96.3,4.9z"/>
	<path d="M100.6,8.4c0,0-4.4,0.2-6.6-1.1c-2.4-1.4-4.8-4.5-5-5.4c0,0,3.8-1.7,7.4,1.4C99.1,5.7,100.4,7.9,100.6,8.4z"/>
</g>
<g>
	<path d="M30.9,75c0,0-3.7-1.2-6.7-0.8c-4.7,0.6-5.1,3.5-5.1,3.5s1.9,1.2,5.9,0.7C29.7,77.8,30.9,75,30.9,75L30.9,75z"/>
	<path d="M24.5,70.6c0,0-3.1-1.5-6.1-1.5c-5.2,0-5.5,2.8-5.5,2.8s1.9,1.3,6,1.3C23.7,73.2,24.5,70.6,24.5,70.6L24.5,70.6z"/>
	<path d="M19.8,66.1c0,0-3-2.6-5.9-3.3c-5-1.3-6.7,1.7-6.7,1.7s1.9,2.2,5.9,3.2C17.8,68.7,19.8,66.1,19.8,66.1z"/>
	<path d="M14.5,59c0,0-2.6-2.7-6.1-3.8c-4.6-1.4-6.7,1.4-6.8,1.4c0,0,1.9,2.4,5.8,3.4C12.7,61.4,14.5,59,14.5,59L14.5,59z"/>
	<path d="M12,53.4c0,0-2.4-3.6-5.9-5.3c-3.5-1.7-6-0.2-6-0.2c0,0,1.8,3.2,5,4.8C9.5,54.8,12,53.4,12,53.4L12,53.4z"/>
	<path d="M11.2,48.5C9.9,47.3,9.8,44,8,41.4C5.5,37.7,1.3,38,1.2,38c0,0,0.4,4.6,3.6,7.3C8.2,48.3,11.2,48.5,11.2,48.5L11.2,48.5z"
		/>
	<path d="M10.8,40.7c0,0,0.1-4-0.9-7c-1.5-4.2-5.5-5-5.5-5c0,0-0.6,4.5,1.7,8C8.5,40.5,10.8,40.7,10.8,40.7L10.8,40.7z"/>
	<path d="M12.5,33.3c0,0,0.8-3.3,0.4-6.5C12.3,22,8.6,21,8.5,21c0,0-1.3,4.4,0.5,8.2C11,33.2,12.5,33.3,12.5,33.3L12.5,33.3z"/>
	<path d="M15.8,25.3c0,0,1.3-3,1.1-6.2c-0.2-4.4-3.2-6.3-3.3-6.3c0,0-2.9,2.6-1.2,8.2C13.4,24.4,15.8,25.3,15.8,25.3L15.8,25.3z"/>
	<path d="M20,18.7c0,0,1.9-3,2.5-6.1c0.5-3-0.7-6.2-1-6.5c0,0-3.1,1.4-3,6.7C18.6,16.3,20,18.7,20,18.7L20,18.7z"/>
	<path d="M25.1,12.3c0,0,2.3-2.4,2.9-5.8c0.5-2.8,0-5.8-0.5-6.5c0,0-3,1.9-3.2,6.6C24.1,10.1,24.9,11.8,25.1,12.3L25.1,12.3z"/>
	<path d="M24,13.7c0,0,2.1-2.5,5.7-3.1c2.8-0.5,4.9,0,6.3,0.8c0,0-2.1,2.7-6.2,3.1C26.3,14.8,24.5,13.9,24,13.7L24,13.7z"/>
	<path d="M19.7,19.4c0,0,2-2.4,5.6-3c2.8-0.5,4.1,0,5.5,0.8c0,0-1.7,2.6-5.7,3C21.5,20.5,20.2,19.6,19.7,19.4L19.7,19.4z"/>
	<path d="M15.5,26.7c0,0,1.9-2.9,5.2-4.3c3.5-1.5,5.2-0.8,6.7-0.2c-0.5,0.7-2.4,3.7-5.6,4.6C18.5,27.8,16,26.9,15.5,26.7z"/>
	<path d="M13,33.3c0,0,1.7-3,4.9-4.7c3.3-1.7,5.2-1.1,6.7-0.7c-0.4,0.7-2.1,3.8-5.2,4.9C16,34.1,13.6,33.4,13,33.3L13,33.3z"/>
	<path d="M11.7,41.1c1.4-1.8,2.2-3.8,4.4-5.8c2.7-2.4,5-1.6,6.6-1.5c-0.8,1.5-1.9,3.8-4.4,5.5C15.5,41.4,12.3,41.1,11.7,41.1
		L11.7,41.1z"/>
	<path d="M11.9,48.3c1.2-2,1.8-3.5,3.8-5.7c2.4-2.7,4.7-2.2,6.3-2.2c-0.6,1.5-1.6,3.8-3.8,5.8C15.4,48.5,12.4,48.2,11.9,48.3z"/>
	<path d="M13.4,54c1.8-2.8,1.6-3.5,3.4-5.8c1.9-2.5,4.4-2.4,5.9-2.6c-0.5,1.6-1.2,3.7-3.3,5.9C17.3,53.7,15,53.4,13.4,54L13.4,54z"
		/>
	<path d="M16.4,59.6c1.2-2.5,1-4.1,2-5.8c1.7-2.9,3.4-3,5-3.2c-1.3,3.6-1,3.6-2.4,5.8C19.7,58.5,17.9,58.8,16.4,59.6L16.4,59.6z"/>
	<path d="M20.1,64.3c0.7-2.7,0-3.5,0.7-5.4c1.1-3.2,2.8-3.6,4.3-4.1c-0.2,2.1,0.1,3.5-1.1,5.8C23.1,62.2,21.4,63.3,20.1,64.3z"/>
	<path d="M27.4,59c0,0,1.3,2.5,0.9,5.5c-0.6,4.2-2.9,4.8-2.9,4.8s-1.3-1.9-1.1-5.7C24.4,59.5,27.4,59,27.4,59L27.4,59z"/>
	<path d="M32.1,63.3c0,0,1.3,2.6,1,5.5c-0.4,3.8-2.5,4.8-2.5,4.8s-1.3-2.1-1.4-5.3C29.2,63.4,32.1,63.3,32.1,63.3L32.1,63.3z"/>
	<path d="M33.2,4.9c-1.8,1.2-3.8,2.7-5.4,4.4c-2.9,3-5.7,6.3-8.1,9.7c-1.6,2.3-3.8,5.7-5,8.3c-1.6,3.4-2.5,5.7-3.3,9.4
		c-1.2,5.2-1,10.6,0.2,15.6C13.3,59.7,19,65.9,24.8,71c4.5,3.9,10.5,6.5,15.9,8.4l0.5-1.4c-5.3-1.9-10.8-4.4-15.2-8.2
		C20.5,64.9,15.4,59,13.2,51.9c-1.3-4.3-1.7-9-1-13.6c0.6-4,2.2-8,3.7-11.7c1.2-3,2.7-5.3,4.5-7.8c2.2-3.1,4.7-6.2,7.3-9
		c1.7-1.8,4-3.4,5.8-4.7L33.2,4.9z"/>
	<path d="M28.9,8.4c0,0,4.4,0.2,6.6-1.1c2.4-1.4,4.8-4.5,5-5.4c0,0-3.8-1.7-7.4,1.4C30.3,5.7,29.1,7.9,28.9,8.4z"/>
</g>
<path d="M60.8,19.1l0.2,0.1c0,0,0.6,0.4,1.5,0.8c0.8,0.4,1.8,0.8,2.2,0.8c0,0,0,0,0,0c0,0,0,0,0.1,0c0,0,0,0,0,0
	c0.4,0,1.4-0.4,2.2-0.8c0.8-0.4,1.5-0.8,1.5-0.8l0.2-0.1h22.5v3.5c1.5,0,2.9,1.4,2.9,2.9v31.8c0,1.5-1.4,2.9-2.9,2.9H70.6v0.2
	c0,1.5-1.1,2.8-2.4,2.8h-2.6v1c0.5,0.3,0.9,0.7,1.4,1c0.2-0.1,0.4-0.2,0.6-0.3c1.6-0.7,3.1-1.3,4.8-1.8c1.2-0.4,2.4-0.7,3.6-0.8
	c0.5-0.1,1-0.1,1.6-0.1c0.4,0,0.8,0,1.3,0c0.9,0.1,1.8,0.2,2.6,0.5c0.2,0.1,0.4,0.1,0.6,0.2c0.2,0.1,0.4,0.2,0.6,0.3
	c0.5,0.3,0.9,0.6,1.3,1c0.4,0.4,0.7,0.9,0.9,1.5c0.4,0.9,0.5,1.8,0.3,2.8c-0.1,0.3-0.1,0.6-0.2,0.8c-0.1,0.3-0.3,0.6-0.5,0.8
	c-0.2,0.3-0.5,0.6-0.8,0.9c-0.3,0.3-0.7,0.5-1.2,0.7c-0.3,0.1-0.5,0.2-0.8,0.3c-0.6,0.2-1.3,0.2-2,0.2c-0.9,0-1.8-0.1-2.7-0.3
	c-1.1-0.2-2.3-0.6-3.4-1.1c-1.1-0.4-2.2-0.9-3.2-1.5c-1.3-0.7-2.5-1.4-3.7-2.2c-0.3,0.1-0.6,0.3-0.9,0.4c-1,0.5-2,0.9-3,1.4l0,0
	c0.3,0.1,0.6,0.2,0.8,0.3c0.2,0.1,0.5,0.2,0.7,0.3c0.2,0.1,0.4,0.1,0.6,0.2l0,0c0.1,0,0.1,0.1,0.2,0.1c0.2,0.1,0.3,0.3,0.3,0.5
	c0,0.1,0,0.1,0,0.2v0.8c0,0,0,0.1,0,0.1l0,1.2c1.8,0.4,3.2,2.1,3.2,4l0,2.3c0,0.1-0.1,0.2-0.2,0.2h-1.5l0,2.5c0,0.3-0.3,0.6-0.6,0.6
	h0c-0.3,0-0.6-0.3-0.6-0.6l0-2.5l-2.4,0l0,2.5c0,0.3-0.3,0.6-0.6,0.6c-0.3,0-0.6-0.3-0.6-0.6l0-2.5h-1.5c-0.1,0-0.2-0.1-0.2-0.2
	l0-2.3c0-2,1.4-3.6,3.2-4.1l0-1.2c0-0.1,0-0.1,0-0.2v-0.1c-1.1-0.4-2.2-0.8-3.3-1.1l-0.1,0c-0.2,0.1-0.4,0.2-0.6,0.2
	c-0.2,0.1-0.4,0.2-0.6,0.2c-1.6,0.6-3.1,1.2-4.7,1.6c-1.1,0.3-2.3,0.5-3.5,0.6c-1.4,0.1-2.9,0-4.3-0.5c-0.2-0.1-0.5-0.2-0.7-0.3
	c-0.1-0.1-0.3-0.1-0.4-0.2c-0.1-0.1-0.3-0.2-0.4-0.3c-0.3-0.2-0.5-0.4-0.7-0.7c-0.1-0.2-0.3-0.5-0.3-0.7c-0.2-0.6-0.2-1.2,0-1.8
	c0.1-0.3,0.2-0.5,0.4-0.7c0.2-0.3,0.5-0.6,0.9-0.8c0.3-0.1,0.5-0.3,0.8-0.3c0.5-0.2,0.9-0.3,1.4-0.3c0.8-0.1,1.6-0.1,2.4-0.1
	c1,0,1.9,0.2,2.9,0.3c1,0.2,2,0.4,3,0.6c1.3,0.3,2.6,0.7,3.9,1.1l0.2,0.1l0.3,0.1c0.3-0.1,0.6-0.3,0.9-0.4c0.3-0.1,0.6-0.3,0.9-0.4
	c0.9-0.4,1.8-0.8,2.7-1.2l0.2-0.1c-0.2-0.1-0.3-0.3-0.5-0.4c-0.1-0.1-0.2-0.2-0.4-0.3l0,0c0,0-0.1,0-0.1-0.1
	c-0.1-0.1-0.2-0.2-0.2-0.4c0-0.1,0-0.1,0-0.2v-1.5h-2.6c-1.3,0-2.4-1.2-2.4-2.8v-0.2H38.2c-1.5,0-2.9-1.4-2.9-2.9V25.6
	c0-1.5,1.4-2.9,2.9-2.9v-3.5H60.8z M49.4,67.9c-0.7,0-1.4,0.1-2.1,0.2c-0.2,0-0.4,0.1-0.6,0.2c-0.1,0-0.2,0.1-0.3,0.1
	c-0.1,0.1-0.3,0.2-0.4,0.4c-0.2,0.3-0.2,0.7,0,1c0.1,0.1,0.1,0.2,0.2,0.3c0.1,0.1,0.2,0.1,0.2,0.2c0.1,0.1,0.2,0.1,0.3,0.1
	c0.3,0.1,0.5,0.2,0.8,0.3c0.5,0.2,1.1,0.3,1.7,0.3c1.2,0.1,2.5,0,3.7-0.2c1.7-0.3,3.3-0.9,4.9-1.5l0,0c-1.5-0.4-2.9-0.8-4.4-1
	c-1.2-0.2-2.5-0.4-3.7-0.4C49.5,67.9,49.5,67.9,49.4,67.9z M77.7,64c-0.3,0-0.7,0-1,0.1c-1.2,0.1-2.3,0.4-3.5,0.7
	c-1.5,0.4-3,1-4.5,1.6c0.2,0.1,0.4,0.3,0.6,0.4c0.8,0.5,1.5,0.9,2.3,1.3c0.6,0.3,1.2,0.6,1.8,0.9c0.5,0.2,1,0.4,1.5,0.6
	c0.8,0.3,1.6,0.5,2.4,0.7c0.7,0.1,1.3,0.2,2,0.3c0.5,0,1.1,0,1.6-0.1c0.3-0.1,0.5-0.1,0.8-0.2c0.3-0.1,0.6-0.3,0.9-0.5
	c0.2-0.1,0.3-0.3,0.4-0.5c0.1-0.1,0.2-0.3,0.2-0.5c0.1-0.1,0.1-0.3,0.1-0.4c0-0.1,0-0.3,0.1-0.4c0.1-0.9-0.3-1.8-1-2.5
	c-0.2-0.2-0.5-0.4-0.7-0.5c-0.2-0.1-0.5-0.2-0.8-0.3c-0.6-0.2-1.2-0.4-1.9-0.4c-0.4,0-0.7-0.1-1.1-0.1C78,64,77.9,64,77.7,64z
	 M88.8,56.9V21.5H69.2c-0.2,0.1-0.6,0.4-1.4,0.8c-0.7,0.3-1.1,0.7-1.9,0.8v22.2c0,0.5-0.7,0.9-1.2,0.9s-1.2-0.4-1.2-0.9V23.1
	c-0.8-0.2-1.2-0.5-1.9-0.8c-0.8-0.4-1.2-0.7-1.4-0.8H40.6v35.4h20.2l0.1,0.1l1,0.5c0.6,0.3,1.5,0.7,1.9,0.8c1,0.3,1.5,0.2,3.2-0.6
	l1.3-0.6l0,0c0,0,0.1,0,0.1,0l0.2-0.1h15.5L88.8,56.9z"/>
<path d="M52.2,30.9c-2.7,0-5.6,2-5.6,5.2c0,1.8,1.2,3.4,3.2,4.4c2,1,3.8,1.6,3.8,2.8c0,1.6-1.6,1.7-2.5,1.7c-1.9,0-4.2-1.9-4.2-1.9
	l-1.9,3.3c0,0,2.4,2.3,6.4,2.3c3.3,0,6.4-1.4,6.4-5.5c0-2.2-2.1-3.8-4-4.6c-1.9-0.8-3.6-1.5-3.6-2.5c0-0.9,0.7-1.5,2-1.5
	c1.8,0,3.4,1.2,3.4,1.2l1.6-3.1C57.5,32.5,55.3,30.9,52.2,30.9z"/>
<path d="M82.6,30.9H72.5v17.6h10.1V45h-6.1v-3.6h5.8v-3.5h-5.8v-3.5h6.1V30.9z"/>
</svg>
