<?xml version="1.0" encoding="utf-8"?>
<svg xmlns="http://www.w3.org/2000/svg" xmlns:svg="http://www.w3.org/2000/svg" version="1.1" viewBox="0 0 1400 340">
	<title>The titlepage for an Ebook edition of Joe Mauser, by Mack Reynolds</title>
	<g aria-label="JOE MAUSER">
		<path d="M 406.9459,52.807016 H 389.35526 V 103.7076 c 0,7.76608 -3.83626,10.8538 -8.88889,10.8538 -4.49123,0 -10.0117,-5.23976 -10.0117,-5.23976 l -5.61403,14.69006 c 0,0 7.01754,7.39181 18.05848,7.39181 15.43859,0 24.04678,-8.04678 24.04678,-23.20468 z"/>
		<path d="m 418.75292,91.356724 c 0,22.549706 16.09357,40.046786 38.92398,40.046786 22.17544,0 38.83041,-17.49708 38.83041,-40.046786 0,-22.549708 -17.40351,-39.953217 -38.83041,-39.953217 -21.23977,0 -38.92398,17.403509 -38.92398,39.953217 z m 18.99415,0 c 0,-11.508772 6.36257,-23.017544 19.92983,-23.017544 13.66082,0 19.83625,11.508772 19.83625,23.017544 0,11.508776 -5.80117,23.017546 -19.83625,23.017546 -14.40936,0 -19.92983,-11.50877 -19.92983,-23.017546 z"/>
		<path d="M 553.43274,52.807016 H 509.269 V 130 h 44.16374 v -15.4386 h -26.5731 V 99.029239 h 25.4503 V 83.590642 h -25.4503 V 68.245613 h 26.5731 z"/>
		<path d="m 662.94298,130 h 17.59064 L 673.60965,52.807016 H 654.8962 L 637.77339,97.345029 620.65058,52.807016 H 601.93713 L 595.01316,130 h 17.59064 l 3.64912,-45.754387 h 0.46784 l 15.81286,45.286547 h 10.47954 l 15.81286,-45.286547 h 0.46784 z"/>
		<path d="M 731.7851,52.807016 H 715.50439 L 684.3465,130 h 18.90058 l 5.70761,-15.4386 H 738.3348 L 744.04241,130 h 18.90058 z m 0.5614,46.31579 h -17.40351 l 8.60819,-22.45614 h 0.18713 z"/>
		<path d="m 830.18422,52.807016 h -17.59064 v 44.63158 c 0,12.912284 -3.92983,16.654974 -12.53802,16.654974 -8.60818,0 -12.53801,-3.74269 -12.53801,-16.654974 v -44.63158 h -17.59064 v 49.777774 c 0,19.08772 10.47953,28.81872 30.12865,28.81872 19.64913,0 30.12866,-9.731 30.12866,-28.81872 z"/>
		<path d="m 872.10671,51.403507 c -12.44445,0 -25.16959,9.169591 -25.16959,23.578948 0,8.046784 5.4269,15.251462 14.69006,19.836258 9.16959,4.584795 17.40351,7.111107 17.40351,12.725147 0,7.20468 -7.29825,7.57895 -11.13451,7.57895 -8.60818,0 -18.90058,-8.70176 -18.90058,-8.70176 l -8.79532,14.78363 c 0,0 10.94736,10.19883 29.00584,10.19883 15.06433,0 29.09942,-6.45614 29.09942,-24.88889 0,-10.105264 -9.45029,-17.40351 -18.05848,-21.052632 -8.79532,-3.742691 -16.09357,-6.83041 -16.09357,-11.134504 0,-4.210526 3.18129,-6.923976 9.16959,-6.923976 7.95322,0 15.62574,5.333333 15.62574,5.333333 l 7.11111,-14.035088 c 0,0 -9.91813,-7.298246 -23.95322,-7.298246 z"/>
		<path d="M 955.69155,52.807016 H 911.5278 V 130 h 44.16375 v -15.4386 h -26.5731 V 99.029239 h 25.45029 V 83.590642 H 929.11845 V 68.245613 h 26.5731 z"/>
		<path d="M 970.80411,52.807016 V 130 h 17.59064 V 99.497075 L 1011.9737,130 h 22.3626 l -26.5731,-31.906433 c 9.4503,-2.994152 15.8128,-10.760234 15.8128,-22.362574 0,-15.157895 -10.8538,-22.923977 -25.16955,-22.923977 z m 17.59064,34.245615 V 66.842104 h 2.05848 c 6.64328,0 14.59647,0.467836 14.59647,10.105263 0,9.637428 -7.95319,10.105264 -14.59647,10.105264 z"/>
	</g>
	<g aria-label="Mack Reynolds">
		<path d="m 450.00329,290 h 13.19298 l -5.19298,-57.89474 H 443.9682 l -12.8421,33.40351 -12.84211,-33.40351 H 404.24891 L 399.05592,290 h 13.19299 l 2.73684,-34.31579 h 0.35088 l 11.85964,33.96491 h 7.85965 l 11.85965,-33.96491 h 0.35088 z"/>
		<path d="m 470.88487,272.03509 c 0,10.52631 7.36842,19.01754 17.89473,19.01754 4.91228,0 9.12281,-2.17544 11.78948,-5.12281 h 0.14035 V 290 h 12.2807 v -36 h -12.42105 v 3.4386 c -2.94737,-2.8772 -6.94737,-4.49123 -11.78948,-4.49123 -10.52631,0 -17.89473,8.5614 -17.89473,19.08772 z m 13.19298,0 c 0,-4.98246 3.7193,-8.49123 8.42105,-8.49123 4.63158,0 8.35088,3.50877 8.35088,8.49123 0,4.91228 -3.50877,8.42105 -8.35088,8.42105 -5.05263,0 -8.42105,-3.50877 -8.42105,-8.42105 z"/>
		<path d="m 545.61074,263.12281 c 3.7193,0 6.03509,1.68421 6.03509,1.68421 l 4.21053,-8.49123 c 0,0 -4.07018,-3.36842 -12.07018,-3.36842 -10.45614,0 -19.92982,8.5614 -19.92982,19.15789 0,10.52632 9.54386,18.94737 19.92982,18.94737 8,0 12.07018,-3.22807 12.07018,-3.22807 l -4.21053,-8.63158 c 0,0 -2.31579,1.68421 -6.03509,1.68421 -4.70175,0 -8.5614,-3.92982 -8.5614,-8.91228 0,-4.91228 3.85965,-8.8421 8.5614,-8.8421 z"/>
		<path d="M 606.97806,254 H 590.83771 L 578.2763,266.5614 V 229.64912 H 565.85525 V 290 H 578.2763 V 275.61404 L 592.66227,290 h 16 l -18.80702,-18.80702 z"/>
		<path d="M 640.41118,232.10526 V 290 h 13.19298 V 267.12281 L 671.28837,290 h 16.77193 l -19.92983,-23.92982 c 7.08772,-2.24562 11.85965,-8.07018 11.85965,-16.77193 0,-11.36842 -8.14035,-17.19299 -18.87719,-17.19299 z m 13.19298,25.68421 v -15.15789 h 1.54386 c 4.98245,0 10.94737,0.35088 10.94737,7.57895 0,7.22807 -5.96492,7.57894 -10.94737,7.57894 z"/>
		<path d="m 730.48904,273.7193 c 0.0702,-0.42105 0.0702,-1.19298 0.0702,-1.68421 0,-12.63158 -8.35088,-19.08772 -19.29825,-19.08772 -10.87719,0 -19.78947,8.5614 -19.78947,19.08772 0,10.45614 8.91228,19.01754 19.78947,19.01754 8,0 14.59649,-2.59649 18.66667,-9.40351 l -8.98246,-4.49123 c -3.01754,3.22808 -4.77193,4 -8.77193,4 -3.15789,0 -7.78947,-1.89473 -7.78947,-7.43859 z m -25.75438,-6.87719 c 0.21052,-3.29825 2.59649,-5.82457 6.87719,-5.82457 3.64912,0 6.24561,2.03509 6.80702,5.82457 z"/>
		<path d="M 768.307,254 759.7456,272.45614 749.71051,254 h -14.31579 l 17.05263,30.38596 -12.42105,23.85965 h 14.31579 L 782.62279,254 Z"/>
		<path d="m 790.41665,290 h 12.42106 v -20.35088 c 0,-3.57894 3.64912,-7.01754 7.36842,-7.01754 4,0 6.45614,3.4386 6.45614,7.01754 V 290 h 12.42105 v -23.7193 c 0,-10.03509 -9.19298,-13.33333 -15.78947,-13.33333 -3.92983,0 -7.50878,2.03509 -10.31579,4.8421 h -0.14035 V 254 h -12.42106 z"/>
		<path d="m 839.14691,272.03509 c 0,11.08772 8.70176,19.01754 21.68421,19.01754 12.42106,0 21.47369,-7.92982 21.47369,-19.01754 0,-11.22807 -9.54386,-19.08772 -21.47369,-19.08772 -12.14035,0 -21.68421,7.85965 -21.68421,19.08772 z m 13.19299,0 c 0,-4.98246 3.71929,-8.49123 8.42105,-8.49123 4.63158,0 8.35088,3.50877 8.35088,8.49123 0,4.91228 -3.50878,8.42105 -8.35088,8.42105 -5.05263,0 -8.42105,-3.50877 -8.42105,-8.42105 z"/>
		<path d="m 892.9331,290 h 12.42105 V 229.64912 H 892.9331 Z"/>
		<path d="m 916.16995,272.03509 c 0,10.52631 7.36843,19.01754 17.89474,19.01754 4.91228,0 9.12281,-2.17544 11.78947,-5.12281 h 0.14036 V 290 h 12.2807 v -60.35088 h -12.42106 v 27.78948 c -2.94736,-2.8772 -6.94736,-4.49123 -11.78947,-4.49123 -10.52631,0 -17.89474,8.5614 -17.89474,19.08772 z m 13.19299,0 c 0,-4.98246 3.71929,-8.49123 8.42105,-8.49123 4.63158,0 8.35088,3.50877 8.35088,8.49123 0,4.91228 -3.50878,8.42105 -8.35088,8.42105 -5.05263,0 -8.42105,-3.50877 -8.42105,-8.42105 z"/>
		<path d="m 987.38706,252.94737 c -9.47368,0 -15.71929,4.21053 -15.71929,11.57895 0,5.4035 3.64912,7.92982 7.29824,9.82456 4.07018,2.10526 8,2.31579 8,4.91228 0,2.38596 -2.10526,2.59649 -3.85965,2.59649 -4,0 -8.91228,-4.14035 -8.91228,-4.14035 l -5.05263,8.49123 c 0,0 5.19298,4.8421 13.89474,4.8421 7.36842,0 17.05261,-1.68421 17.05261,-12.2807 0,-7.36842 -6.17542,-10.03509 -10.94735,-11.50877 -3.08772,-0.98246 -5.61403,-1.54386 -5.61403,-3.4386 0,-1.68421 1.1228,-2.17544 3.85964,-2.17544 3.78948,0 8,2.24562 8,2.24562 l 4.07018,-8.14035 c 0,0 -5.12281,-2.80702 -12.07018,-2.80702 z"/>
	</g>
</svg>
